<?xml version="1.0" encoding="UTF-8" standalone="no"?>
<!DOCTYPE svg PUBLIC "-//W3C//DTD SVG 1.0//EN" "http://www.w3.org/TR/2001/PR-SVG-20010719/DTD/svg10.dtd">
<svg width="43cm" height="14cm" viewBox="123 184 841 270" xmlns="http://www.w3.org/2000/svg" xmlns:xlink="http://www.w3.org/1999/xlink">
  <g>
    <rect style="fill: #ffc0cb" x="646" y="293" width="81.9" height="36"/>
    <rect style="fill: none; fill-opacity:0; stroke-width: 3; stroke: #000000" x="646" y="293" width="81.9" height="36"/>
    <text font-size="12.8" style="fill: #000000;text-anchor:middle;font-family:monospace;font-style:normal;font-weight:normal" x="686.95" y="315">Cuentas</text>
  </g>
  <g>
    <rect style="fill: #ffa500" x="300" y="293" width="89.6" height="36"/>
    <rect style="fill: none; fill-opacity:0; stroke-width: 3; stroke: #000000" x="300" y="293" width="89.6" height="36"/>
    <text font-size="12.8" style="fill: #000000;text-anchor:middle;font-family:monospace;font-style:normal;font-weight:normal" x="344.8" y="315">Clientes</text>
  </g>
  <g>
    <ellipse style="fill: #ffa500" cx="344.65" cy="221" rx="54.65" ry="18"/>
    <ellipse style="fill: none; fill-opacity:0; stroke-width: 3; stroke: #000000" cx="344.65" cy="221" rx="54.65" ry="18"/>
    <text font-size="12.8" style="fill: #000000;text-anchor:middle;font-family:monospace;font-style:normal;font-weight:normal" x="344.65" y="225">idCliente</text>
    <line style="fill: none; fill-opacity:0; stroke-width: 3; stroke: #000000" x1="310" y1="229" x2="379.3" y2="229"/>
  </g>
  <g>
    <ellipse style="fill: #ffa500" cx="194.5" cy="285" rx="58.5" ry="18"/>
    <ellipse style="fill: none; fill-opacity:0; stroke-width: 3; stroke: #000000" cx="194.5" cy="285" rx="58.5" ry="18"/>
    <text font-size="12.8" style="fill: #000000;text-anchor:middle;font-family:monospace;font-style:normal;font-weight:normal" x="194.5" y="289">dniCliente</text>
  </g>
  <g>
    <ellipse style="fill: #ffa500" cx="195.05" cy="359" rx="70.05" ry="18"/>
    <ellipse style="fill: none; fill-opacity:0; stroke-width: 3; stroke: #000000" cx="195.05" cy="359" rx="70.05" ry="18"/>
    <text font-size="12.8" style="fill: #000000;text-anchor:middle;font-family:monospace;font-style:normal;font-weight:normal" x="195.05" y="363">nombreCliente</text>
  </g>
  <g>
    <ellipse style="fill: #ffa500" cx="345.6" cy="427" rx="81.6" ry="18"/>
    <ellipse style="fill: none; fill-opacity:0; stroke-width: 3; stroke: #000000" cx="345.6" cy="427" rx="81.6" ry="18"/>
    <text font-size="12.8" style="fill: #000000;text-anchor:middle;font-family:monospace;font-style:normal;font-weight:normal" x="345.6" y="431">direccionCliente</text>
  </g>
  <line style="fill: none; fill-opacity:0; stroke-width: 3; stroke: #000000" x1="344.934" y1="330.499" x2="345.466" y2="407.501"/>
  <line style="fill: none; fill-opacity:0; stroke-width: 3; stroke: #000000" x1="298.506" y1="325.839" x2="240.275" y2="344.504"/>
  <line style="fill: none; fill-opacity:0; stroke-width: 3; stroke: #000000" x1="298.528" y1="302.996" x2="246.936" y2="294.071"/>
  <line style="fill: none; fill-opacity:0; stroke-width: 3; stroke: #000000" x1="344.768" y1="291.576" x2="344.682" y2="240.424"/>
  <g>
    <ellipse style="fill: #ffc0cb" cx="686.8" cy="204" rx="50.8" ry="18"/>
    <ellipse style="fill: none; fill-opacity:0; stroke-width: 3; stroke: #000000" cx="686.8" cy="204" rx="50.8" ry="18"/>
    <text font-size="12.8" style="fill: #000000;text-anchor:middle;font-family:monospace;font-style:normal;font-weight:normal" x="686.8" y="208">idCuenta</text>
    <line style="fill: none; fill-opacity:0; stroke-width: 3; stroke: #000000" x1="656" y1="212" x2="717.6" y2="212"/>
  </g>
  <g>
    <ellipse style="fill: #ffc0cb" cx="868.2" cy="232" rx="66.2" ry="18"/>
    <ellipse style="fill: none; fill-opacity:0; stroke-width: 3; stroke: #000000" cx="868.2" cy="232" rx="66.2" ry="18"/>
    <text font-size="12.8" style="fill: #000000;text-anchor:middle;font-family:monospace;font-style:normal;font-weight:normal" x="868.2" y="236">numeroCuenta</text>
  </g>
  <g>
    <ellipse style="fill: #ffc0cb" cx="903.5" cy="311" rx="58.5" ry="18"/>
    <ellipse style="fill: none; fill-opacity:0; stroke-width: 3; stroke: #000000" cx="903.5" cy="311" rx="58.5" ry="18"/>
    <text font-size="12.8" style="fill: #000000;text-anchor:middle;font-family:monospace;font-style:normal;font-weight:normal" x="903.5" y="315">tipoCuenta</text>
  </g>
  <g>
    <ellipse style="fill: #ffc0cb" cx="872.35" cy="393" rx="62.35" ry="18"/>
    <ellipse style="fill: none; fill-opacity:0; stroke-width: 3; stroke: #000000" cx="872.35" cy="393" rx="62.35" ry="18"/>
    <text font-size="12.8" style="fill: #000000;text-anchor:middle;font-family:monospace;font-style:normal;font-weight:normal" x="872.35" y="397">saldoCuenta</text>
  </g>
  <line style="fill: none; fill-opacity:0; stroke-width: 3; stroke: #000000" x1="729.362" y1="329.758" x2="836.897" y2="377.32"/>
  <line style="fill: none; fill-opacity:0; stroke-width: 3; stroke: #000000" x1="729.377" y1="311" x2="843.521" y2="311"/>
  <line style="fill: none; fill-opacity:0; stroke-width: 3; stroke: #000000" x1="729.397" y1="292.499" x2="831.804" y2="247.864"/>
  <line style="fill: none; fill-opacity:0; stroke-width: 3; stroke: #000000" x1="686.923" y1="291.499" x2="686.827" y2="223.501"/>
  <g>
    <polygon style="fill: #ffffff" points="468,311.48 518.8,281 569.6,311.48 518.8,341.96 "/>
    <polygon style="fill: none; fill-opacity:0; stroke-width: 3; stroke: #000000" points="468,311.48 518.8,281 569.6,311.48 518.8,341.96 "/>
    <text font-size="12.8" style="fill: #000000;text-anchor:end;font-family:monospace;font-style:normal;font-weight:normal" x="462" y="305.48">1:1</text>
    <text font-size="12.8" style="fill: #000000;text-anchor:start;font-family:monospace;font-style:normal;font-weight:normal" x="575.6" y="305.48">1:N</text>
    <text font-size="12.8" style="fill: #000000;text-anchor:middle;font-family:monospace;font-style:normal;font-weight:normal" x="518.8" y="315.48">Relación</text>
  </g>
  <line style="fill: none; fill-opacity:0; stroke-width: 3; stroke: #000000" x1="466.496" y1="311.336" x2="391.061" y2="311.128"/>
  <line style="fill: none; fill-opacity:0; stroke-width: 3; stroke: #000000" x1="571.06" y1="311.331" x2="644.492" y2="311.121"/>
  <g>
    <ellipse style="fill: #ffc0cb" cx="687.15" cy="435" rx="93.15" ry="18"/>
    <ellipse style="fill: none; fill-opacity:0; stroke-width: 3; stroke: #000000" cx="687.15" cy="435" rx="93.15" ry="18"/>
    <text font-size="12.8" style="fill: #000000;text-anchor:middle;font-family:monospace;font-style:normal;font-weight:normal" x="687.15" y="439">fechaCreacionCuenta</text>
  </g>
  <line style="fill: none; fill-opacity:0; stroke-width: 3; stroke: #000000" x1="687.119" y1="415.496" x2="686.981" y2="330.504"/>
</svg>
