<?xml version="1.0" encoding="UTF-8" standalone="no"?>
<!DOCTYPE svg PUBLIC "-//W3C//DTD SVG 1.0//EN" "http://www.w3.org/TR/2001/PR-SVG-20010719/DTD/svg10.dtd">
<svg width="41cm" height="16cm" viewBox="70 395 815 314" xmlns="http://www.w3.org/2000/svg" xmlns:xlink="http://www.w3.org/1999/xlink">
  <g>
    <rect style="fill: #ffc0cb" x="164" y="553" width="128.1" height="36"/>
    <rect style="fill: none; fill-opacity:0; stroke-width: 2; stroke: #000000" x="164" y="553" width="128.1" height="36"/>
    <text font-size="12.8" style="fill: #000000;text-anchor:middle;font-family:monospace;font-style:normal;font-weight:normal" x="228.05" y="575">DEPARTAMENTOS</text>
  </g>
  <g>
    <rect style="fill: #ffa500" x="652.114" y="552.422" width="97.3" height="36"/>
    <rect style="fill: none; fill-opacity:0; stroke-width: 2; stroke: #000000" x="652.114" y="552.422" width="97.3" height="36"/>
    <text font-size="12.8" style="fill: #000000;text-anchor:middle;font-family:monospace;font-style:normal;font-weight:normal" x="700.764" y="574.422">EMPLEADOS</text>
  </g>
  <g>
    <polygon style="fill: #ffffff" points="408,571.1 466.5,536 525,571.1 466.5,606.2 "/>
    <polygon style="fill: none; fill-opacity:0; stroke-width: 2; stroke: #000000" points="408,571.1 466.5,536 525,571.1 466.5,606.2 "/>
    <text font-size="12.8" style="fill: #000000;text-anchor:end;font-family:monospace;font-style:normal;font-weight:normal" x="402" y="565.1">1:1</text>
    <text font-size="12.8" style="fill: #000000;text-anchor:start;font-family:monospace;font-style:normal;font-weight:normal" x="531" y="565.1">1:N</text>
    <text font-size="12.8" style="fill: #000000;text-anchor:middle;font-family:monospace;font-style:normal;font-weight:normal" x="466.5" y="575.1">Pertenecer</text>
  </g>
  <g>
    <ellipse style="fill: #ffc0cb" cx="344.3" cy="423" rx="89.3" ry="18"/>
    <ellipse style="fill: none; fill-opacity:0; stroke-width: 2; stroke: #000000" cx="344.3" cy="423" rx="89.3" ry="18"/>
    <text font-size="12.8" style="fill: #000000;text-anchor:middle;font-family:monospace;font-style:normal;font-weight:normal" x="344.3" y="427">nombreDepartamento</text>
  </g>
  <g>
    <ellipse style="fill: #ffc0cb" cx="144.9" cy="423" rx="73.9" ry="18"/>
    <ellipse style="fill: none; fill-opacity:0; stroke-width: 2; stroke: #000000" cx="144.9" cy="423" rx="73.9" ry="18"/>
    <text font-size="12.8" style="fill: #000000;text-anchor:middle;font-family:monospace;font-style:normal;font-weight:normal" x="144.9" y="427">idDepartamento</text>
    <line style="fill: none; fill-opacity:0; stroke-width: 2; stroke: #000000" x1="91" y1="431" x2="198.8" y2="431"/>
  </g>
  <g>
    <ellipse style="fill: #ffc0cb" cx="227.879" cy="684.708" rx="97" ry="18"/>
    <ellipse style="fill: none; fill-opacity:0; stroke-width: 2; stroke: #000000" cx="227.879" cy="684.708" rx="97" ry="18"/>
    <text font-size="12.8" style="fill: #000000;text-anchor:middle;font-family:monospace;font-style:normal;font-weight:normal" x="227.879" y="688.708">telefonoDepartamento</text>
  </g>
  <g>
    <ellipse style="fill: #ffa500" cx="617.35" cy="414" rx="62.35" ry="18"/>
    <ellipse style="fill: none; fill-opacity:0; stroke-width: 2; stroke: #000000" cx="617.35" cy="414" rx="62.35" ry="18"/>
    <text font-size="12.8" style="fill: #000000;text-anchor:middle;font-family:monospace;font-style:normal;font-weight:normal" x="617.35" y="418">idEmmpleado</text>
    <line style="fill: none; fill-opacity:0; stroke-width: 2; stroke: #000000" x1="575" y1="422" x2="659.7" y2="422"/>
  </g>
  <g>
    <ellipse style="fill: #ffa500" cx="592.628" cy="689.536" rx="73.9" ry="18"/>
    <ellipse style="fill: none; fill-opacity:0; stroke-width: 2; stroke: #000000" cx="592.628" cy="689.536" rx="73.9" ry="18"/>
    <text font-size="12.8" style="fill: #000000;text-anchor:middle;font-family:monospace;font-style:normal;font-weight:normal" x="592.628" y="693.536">puestoEmpleado</text>
  </g>
  <g>
    <ellipse style="fill: #ffa500" cx="791.558" cy="689.122" rx="77.75" ry="18"/>
    <ellipse style="fill: none; fill-opacity:0; stroke-width: 2; stroke: #000000" cx="791.558" cy="689.122" rx="77.75" ry="18"/>
    <text font-size="12.8" style="fill: #000000;text-anchor:middle;font-family:monospace;font-style:normal;font-weight:normal" x="791.558" y="693.122">salarioEmpleado</text>
  </g>
  <g>
    <ellipse style="fill: #ffa500" cx="809.902" cy="417" rx="73.9" ry="18"/>
    <ellipse style="fill: none; fill-opacity:0; stroke-width: 2; stroke: #000000" cx="809.902" cy="417" rx="73.9" ry="18"/>
    <text font-size="12.8" style="fill: #000000;text-anchor:middle;font-family:monospace;font-style:normal;font-weight:normal" x="809.902" y="421">nombreEmpleado</text>
  </g>
  <line style="fill: none; fill-opacity:0; stroke-width: 3; stroke: #000000" x1="144.9" y1="441" x2="215.9" y2="552.005"/>
  <line style="fill: none; fill-opacity:0; stroke-width: 3; stroke: #000000" x1="329.74" y1="441.536" x2="242.95" y2="552.03"/>
  <line style="fill: none; fill-opacity:0; stroke-width: 3; stroke: #000000" x1="227.907" y1="665.706" x2="228.021" y2="590.002"/>
  <line style="fill: none; fill-opacity:0; stroke-width: 3; stroke: #000000" x1="292.1" y1="571" x2="408" y2="571.1"/>
  <line style="fill: none; fill-opacity:0; stroke-width: 3; stroke: #000000" x1="525" y1="571.1" x2="651.105" y2="570.614"/>
  <line style="fill: none; fill-opacity:0; stroke-width: 3; stroke: #000000" x1="680.462" y1="589.406" x2="592.628" y2="671.536"/>
  <line style="fill: none; fill-opacity:0; stroke-width: 3; stroke: #000000" x1="700.764" y1="588.422" x2="775.011" y2="670.769"/>
  <line style="fill: none; fill-opacity:0; stroke-width: 3; stroke: #000000" x1="700.764" y1="552.422" x2="795.061" y2="435.416"/>
  <line style="fill: none; fill-opacity:0; stroke-width: 3; stroke: #000000" x1="700.764" y1="570.422" x2="700.764" y2="570.422"/>
  <line style="fill: none; fill-opacity:0; stroke-width: 3; stroke: #000000" x1="617.35" y1="432" x2="689.314" y2="551.421"/>
</svg>
